<svg width="28" height="28" viewBox="0 0 28 28" fill="none" xmlns="http://www.w3.org/2000/svg">
<path d="M23.8995 4.10047C21.2553 1.45622 17.7395 0 14 0C10.2605 0 6.74472 1.45622 4.10047 4.10047C1.45622 6.74472 0 10.2605 0 14C0 17.7395 1.45627 21.2552 4.10047 23.8995C6.74466 26.5438 10.2605 28 14 28C17.7395 28 21.2553 26.5438 23.8995 23.8995C26.5438 21.2553 28 17.7395 28 14C28 10.2605 26.5437 6.74477 23.8995 4.10047Z" fill="#33CC95"/>
<g clip-path="url(#clip0_119012_240)">
<path d="M14.4 5.6V23.2" stroke="white" stroke-width="2" stroke-linecap="round" stroke-linejoin="round"/>
<path d="M18.4001 8.8H12.4001C11.6575 8.8 10.9453 9.09499 10.4202 9.6201C9.8951 10.1452 9.6001 10.8574 9.6001 11.6C9.6001 12.3426 9.8951 13.0548 10.4202 13.5799C10.9453 14.105 11.6575 14.4 12.4001 14.4H16.4001C17.1427 14.4 17.8549 14.695 18.38 15.2201C18.9051 15.7452 19.2001 16.4574 19.2001 17.2C19.2001 17.9426 18.9051 18.6548 18.38 19.1799C17.8549 19.705 17.1427 20 16.4001 20H9.6001" stroke="white" stroke-width="2" stroke-linecap="round" stroke-linejoin="round"/>
</g>
<defs>
<clipPath id="clip0_119012_240">
<rect width="19.2" height="19.2" fill="white" transform="translate(4.80005 4.8)"/>
</clipPath>
</defs>
</svg>
